<?xml version="1.0" encoding="UTF-8" standalone="no"?>
<!-- Created with Inkscape (http://www.inkscape.org/) -->

<svg
   xmlns:dc="http://purl.org/dc/elements/1.1/"
   xmlns:cc="http://creativecommons.org/ns#"
   xmlns:rdf="http://www.w3.org/1999/02/22-rdf-syntax-ns#"
   xmlns:svg="http://www.w3.org/2000/svg"
   xmlns="http://www.w3.org/2000/svg"
   xmlns:sodipodi="http://sodipodi.sourceforge.net/DTD/sodipodi-0.dtd"
   xmlns:inkscape="http://www.inkscape.org/namespaces/inkscape"
   width="250mm"
   height="40mm"
   id="svg2"
   version="1.1"
   inkscape:version="0.92.1 r"
   sodipodi:docname="libremesh.svg"
   inkscape:export-filename="/home/p4u/Dropbox/Bagul/libremesh.png"
   inkscape:export-xdpi="135.62581"
   inkscape:export-ydpi="135.62581">
  <defs
     id="defs4">
    <inkscape:perspective
       sodipodi:type="inkscape:persp3d"
       inkscape:vp_x="0 : 561.25983 : 1"
       inkscape:vp_y="0 : 1066.6667 : 0"
       inkscape:vp_z="793.70078 : 561.25983 : 1"
       inkscape:persp3d-origin="396.85039 : 374.17322 : 1"
       id="perspective3058" />
  </defs>
  <sodipodi:namedview
     id="base"
     pagecolor="#ffffff"
     bordercolor="#666666"
     borderopacity="1.0"
     inkscape:pageopacity="0.0"
     inkscape:pageshadow="2"
     inkscape:zoom="0.50000002"
     inkscape:cx="439.38841"
     inkscape:cy="278.36007"
     inkscape:document-units="px"
     inkscape:current-layer="layer1"
     showgrid="false"
     inkscape:window-width="1364"
     inkscape:window-height="726"
     inkscape:window-x="0"
     inkscape:window-y="20"
     inkscape:window-maximized="1" />
  <metadata
     id="metadata7">
    <rdf:RDF>
      <cc:Work
         rdf:about="">
        <dc:format>image/svg+xml</dc:format>
        <dc:type
           rdf:resource="http://purl.org/dc/dcmitype/StillImage" />
        <dc:title></dc:title>
      </cc:Work>
    </rdf:RDF>
  </metadata>
  <g
     inkscape:label="Capa 1"
     inkscape:groupmode="layer"
     id="layer1"
     transform="translate(-139.37934,-271.18788)">
    <g
       id="g4523"
       transform="matrix(3.3033548,0,0,3.3033548,-332.2208,-1112.6507)">
      <text
         inkscape:export-ydpi="169.41119"
         inkscape:export-xdpi="169.41119"
         inkscape:export-filename="/home/p4u/Dropbox/Bagul/libremesh.png"
         id="text2992"
         y="455.1944"
         x="208.66779"
         style="font-style:normal;font-weight:normal;line-height:0%;font-family:sans-serif;letter-spacing:0px;word-spacing:0px;fill:#000000;fill-opacity:1;stroke:none"
         xml:space="preserve"><tspan
           style="font-style:normal;font-variant:normal;font-weight:bold;font-stretch:normal;font-size:40px;line-height:1.25;font-family:Cantarell;-inkscape-font-specification:'Cantarell Bold'"
           y="455.1944"
           x="208.66779"
           id="tspan2994"
           sodipodi:role="line"><tspan
   id="tspan2996"
   style="font-style:normal;font-variant:normal;font-weight:bold;font-stretch:normal;font-family:Cantarell;-inkscape-font-specification:'Cantarell Bold';fill:#008000">libre</tspan>mesh</tspan></text>
      <path
         inkscape:export-ydpi="169.41119"
         inkscape:export-xdpi="169.41119"
         inkscape:export-filename="/home/p4u/Dropbox/Bagul/libremesh.png"
         sodipodi:nodetypes="ccsssscsccscscsssccsscssscsccsscssscscscsscsscssscccsssccccsccccscccssccc"
         style="fill:#afe9af"
         d="m 182.54432,457.11647 c -3.88486,-3.4064 -2.17646,-1.34399 -6.58937,0.12092 -0.23327,-0.24575 -2.02839,-4.47138 -2.50618,-5.89943 -0.6964,-2.08146 -0.88686,-3.76868 -0.61992,-5.4917 0.10179,-0.65706 0.24532,-2.29672 0.31895,-3.64369 0.18633,-3.40858 0.83301,-5.67513 2.14483,-7.51741 l 0.2259,-0.31725 1.34306,-0.14934 c 1.68894,-0.18781 1.54359,-0.0192 1.54284,-1.78934 l -6e-4,-1.51614 0.3605,-0.89599 c 0.61918,-1.53893 1.70986,-2.71199 2.78169,-2.99178 0.27653,-0.0722 1.49734,-0.43589 2.7129,-0.80823 l 2.21011,-0.67698 0.71679,-0.73333 c 1.63118,-1.66883 2.911,-1.76547 7.64578,-0.57734 1.117,0.2803 2.39568,0.53533 2.8415,0.56673 l 0.8106,0.0571 0.9604,-0.46445 c 1.71151,-0.82766 2.75757,-0.46579 4.00557,1.38568 0.48696,0.72242 0.48557,0.64957 0.0398,2.08447 l -0.36178,1.1645 0.91002,2.12599 c 0.8961,2.09346 1.28695,3.1684 1.18802,3.26733 -0.0957,0.0957 -1.09426,-0.62895 -8.82101,-6.40072 l -3.71837,-2.77757 h -0.4435 c -0.24392,0 -0.47564,0.052 -0.51493,0.11559 -0.17012,0.27526 3.50066,4.97524 4.30693,5.51449 0.2581,0.17263 1.16816,0.76791 2.02233,1.32285 2.7073,1.75887 5.07602,3.93636 6.36846,5.85433 l 0.62027,0.92046 v 0.98335 c 0,1.40117 -0.6354,3.67537 -1.11063,3.97514 -0.71441,0.45064 -6.53753,-4.17512 -12.02689,-9.55389 l -2.81111,-2.75449 -1.44871,-0.61096 c -1.92152,-0.81036 -3.80726,-1.33979 -4.79335,-1.34575 -0.42668,-0.003 1.16832,2.74525 2.63508,4.53966 l 1.12371,1.37473 2.13763,1.18757 c 6.76333,3.7574 9.81485,6.04922 11.93706,8.96522 0.38255,0.52565 0.84743,1.15417 1.03306,1.39672 0.43744,0.57155 0.42817,0.69829 -0.13643,1.86582 -0.85033,1.75837 -2.08594,3.25635 -3.13235,3.79747 l -0.35184,0.18194 -1.09717,-0.68099 c -3.41401,-2.119 -6.82163,-4.91671 -11.13225,-9.13972 -1.24841,-1.22304 -2.37736,-2.27908 -2.50877,-2.34676 -0.42641,-0.21961 -5.91601,-1.74215 -5.99535,-1.66281 -0.0708,0.0709 0.0427,0.55565 0.51136,2.18375 l 0.17646,0.61297 1.75863,1.61854 c 1.82279,1.67758 2.83501,2.49043 3.97844,3.19484 0.36766,0.2265 2.41052,1.55211 4.53969,2.94581 l 3.8712,2.53399 1.23048,1.50984 1.23048,1.50984 -0.20668,0.31665 c -0.40936,0.6272 -1.52705,1.58034 -2.29855,1.96015 l -0.78696,0.38742 -0.8985,-0.003 -0.89851,-0.003 -0.59732,-0.31362 c -1.4013,-0.73572 -6.93668,-5.12742 -9.24176,-7.33228 -0.76486,-0.73161 -1.52505,-1.40174 -1.68932,-1.48917 -0.34548,-0.1839 -3.02966,-1.17909 -3.44712,-1.27807 l -0.28129,-0.0667 0.33482,0.52404 c 0.52662,0.82425 0.52886,0.82637 3.99092,3.78982 1.80691,1.54667 2.44948,3.9972 3.20138,4.77657 -3.1969,-2.20631 1.45889,-0.91552 -3.55475,-1.52171 z"
         id="path3002"
         inkscape:connector-curvature="0" />
      <path
         inkscape:export-ydpi="169.41119"
         inkscape:export-xdpi="169.41119"
         inkscape:export-filename="/home/p4u/Dropbox/Bagul/libremesh.png"
         sodipodi:nodetypes="cssccccssccscsccsscsssccscscsssccccccccccssccccsssscsscccccsccsscsscccsccsssccscsssssccc"
         style="fill:#b7fe59"
         d="m 184.19914,458.68236 c -3.71173,-0.51152 -7.63153,-1.23758 -8.01354,-1.48434 -0.57952,-0.37435 -2.81993,-6.16407 -3.29103,-8.50477 l -0.25335,-1.25877 0.10436,-0.595 0.10435,-0.595 0.48536,0.35289 c 0.51916,0.37748 1.24689,1.40092 1.24689,1.75358 0,0.94264 2.71118,4.31405 4.65915,5.79376 3.8777,2.94557 6.50325,4.94784 7.03074,4.61511 l 0.45583,-0.34124 -1.29803,-0.39937 c -0.61778,-0.19007 2.48382,1.14219 2.35268,1.13578 -0.13114,-0.006 -1.74369,-0.21909 -3.58346,-0.47263 z m 5.28132,-1.01542 c -0.66045,-0.21108 -4.39104,-2.96307 -7.13303,-5.26192 -1.52672,-1.27997 -2.34529,-2.03209 -4.70328,-4.32145 -0.85153,-0.82675 -1.85539,-2.41827 -3.14432,-4.98501 l -1.13984,-2.26984 0.0699,-0.84201 c 0.0927,-1.11666 0.44773,-2.24474 1.16354,-3.69768 1.00576,-2.04143 1.24637,-2.13455 0.84767,-0.32807 l -0.25698,1.16433 0.38594,0.32607 c 0.21226,0.17934 0.6276,0.50444 0.92298,0.72245 0.29538,0.21801 0.55266,0.50136 0.57175,0.62966 0.0191,0.1283 0.20748,0.86977 0.41867,1.64772 l 0.38398,1.41446 1.01545,0.98912 c 1.99104,1.9394 3.84008,3.49702 4.80943,4.05143 0.75545,0.43207 8.88816,6.52757 9.91339,7.43012 0.99167,0.87301 0.99356,0.96314 0.0401,1.91655 -1.30296,1.30296 -2.85963,1.83141 -4.16544,1.41407 z m 7.42322,-5.60339 c -4.12399,-2.58432 -10.22967,-7.92722 -16.20233,-14.17817 l -1.67083,-1.74868 -0.22312,-0.64063 -0.22313,-0.64062 v -2.09064 -2.09065 l 0.50063,-1.0236 c 0.70912,-1.4499 1.83237,-2.50062 2.67322,-2.50062 h 0.25648 l -0.0848,0.20906 c -0.64096,1.58056 -0.64311,1.72314 -0.0304,2.0213 l 0.50773,0.24706 0.93371,1.65832 c 0.92721,1.64678 1.10619,1.88064 4.21505,5.50742 2.54139,2.96477 6.89843,6.33084 12.17371,9.4049 0.98559,0.57433 1.8963,1.14507 2.02381,1.26832 l 0.23182,0.22407 -0.33041,0.81018 c -0.52916,1.29751 -1.31777,2.4536 -2.29842,3.36942 -1.09248,1.02025 -1.12894,1.02313 -2.45275,0.19356 z m 5.14045,-9.25438 c -1.95412,-1.30368 -3.67765,-2.64444 -5.6871,-4.42406 -1.8705,-1.65656 -9.09177,-8.71768 -9.16868,-8.96533 -0.0306,-0.0986 -0.13504,-0.98013 -0.23208,-1.95904 l -0.17643,-1.77983 0.1693,-0.31081 c 1.09319,-2.00687 2.86045,-2.31104 7.07347,-1.21745 1.49622,0.38838 3.09749,0.742 3.55839,0.78583 l 0.83801,0.0797 1.00739,-0.48716 c 1.72968,-0.83645 2.90626,-0.40445 4.00507,1.47052 l 0.31271,0.5336 -0.38209,1.25393 -0.38208,1.25392 0.99098,2.30892 c 0.54504,1.2699 1.06869,2.49706 1.16367,2.72703 l 0.17268,0.41813 -0.25487,-0.26879 c -0.14018,-0.14784 -0.30268,-0.2688 -0.36111,-0.2688 -0.0584,0 -1.17185,-1.02729 -2.47426,-2.28287 -2.50181,-2.41186 -3.74455,-3.47765 -4.67076,-4.00566 -0.31042,-0.17697 -0.67193,-0.41322 -0.80334,-0.52501 -0.13141,-0.11178 -0.85568,-0.59338 -1.60949,-1.07021 l -1.37056,-0.86697 -0.75314,-0.0934 c -1.71464,-0.21264 -1.75303,0.0444 -0.3038,2.03461 2.40295,3.29994 5.67516,6.51635 11.14399,10.95395 0.55785,0.45266 1.06458,0.96605 1.12606,1.14087 0.25482,0.72457 -0.73926,4.63032 -1.1785,4.63032 -0.0857,0 -0.87469,-0.47966 -1.75343,-1.06591 z"
         id="path3000"
         inkscape:connector-curvature="0" />
      <path
         inkscape:export-ydpi="169.41119"
         inkscape:export-xdpi="169.41119"
         inkscape:export-filename="/home/p4u/Dropbox/Bagul/libremesh.png"
         sodipodi:nodetypes="cscscccssscccccc"
         inkscape:connector-curvature="0"
         id="path3040"
         d="m 186.82738,458.92862 c -0.13141,-0.0563 -0.27784,0.53273 -1.39484,0.39232 -3.96695,-0.49867 -9.22937,-1.78893 -9.404,-2.06621 -0.64722,-1.0276 -2.66254,-6.21568 -2.99509,-7.73612 -0.11497,-0.52565 -0.34253,-1.63777 -0.13247,-1.28304 -0.10448,-0.24909 -0.15786,-0.83672 -0.12814,-1.41048 l 0.0174,-0.33528 0.37272,0.21582 c 0.45284,0.26221 1.18033,1.1808 1.18033,1.49037 0,0.33952 0.73828,1.73361 1.38118,2.60807 1.58863,2.16083 3.16671,2.93691 7.65186,6.01072 1.45967,0.86867 2.44387,1.26366 3.74975,2.00263 0.0329,0.0455 0.16725,0.10957 0.29866,0.1424 -2.57859,0.74703 0.19137,-0.19819 1.13351,0.37506 -0.16426,0.003 -1.59942,-0.34966 -1.73083,-0.40596 z"
         style="fill:#008000;stroke:#008000;stroke-width:0.30000001;stroke-miterlimit:4;stroke-dasharray:none;stroke-opacity:1" />
      <path
         inkscape:connector-curvature="0"
         inkscape:export-ydpi="169.41119"
         inkscape:export-xdpi="169.41119"
         inkscape:export-filename="/home/p4u/Dropbox/Bagul/libremesh.png"
         id="path3038"
         d="m 189.84,457.60395 c -1.46224,-0.34851 -7.31621,-4.94259 -11.09021,-8.70335 -1.89039,-1.88376 -2.5036,-2.76404 -4.08321,-5.86155 l -1.06603,-2.09041 0.0543,-1.07542 c 0.061,-1.20712 0.32668,-2.08364 1.08642,-3.58419 0.52455,-1.03603 0.66058,-0.99349 0.40133,0.12551 -0.21187,0.91453 -0.21871,0.90103 0.81898,1.61838 0.48504,0.33531 0.90461,0.69834 0.93237,0.80674 0.0278,0.10839 0.22478,0.84219 0.43783,1.63066 l 0.38736,1.43358 1.0896,1.06422 c 1.70815,1.66834 3.92995,3.57518 4.70067,4.0343 1.65253,0.98441 10.7845,7.99144 10.7845,8.27503 0,0.27192 -1.61505,1.69355 -2.28501,2.01135 -0.74592,0.35383 -1.52918,0.46764 -2.16895,0.31515 z"
         style="fill:#008000;stroke:#008000;stroke-width:0.30000001;stroke-miterlimit:4;stroke-dasharray:none;stroke-opacity:1" />
      <path
         inkscape:connector-curvature="0"
         inkscape:export-ydpi="169.41119"
         inkscape:export-xdpi="169.41119"
         inkscape:export-filename="/home/p4u/Dropbox/Bagul/libremesh.png"
         id="path3036"
         d="m 196.20142,451.42967 c -2.20651,-1.47825 -3.70495,-2.63202 -5.99544,-4.61638 -3.55902,-3.08335 -10.68162,-10.23417 -11.09722,-11.1412 -0.27083,-0.59108 -0.50578,-2.68533 -0.44634,-3.97849 l 0.0414,-0.89997 0.49116,-1.02233 c 0.56752,-1.18126 1.05886,-1.78774 1.80041,-2.22232 0.68794,-0.40316 0.74011,-0.31522 0.39811,0.67105 l -0.28532,0.82283 0.14109,0.17 c 0.0776,0.0935 0.35645,0.26712 0.61966,0.38581 l 0.47856,0.21581 0.86611,1.54972 c 0.60077,1.07497 1.25039,2.0096 2.12049,3.05083 0.68991,0.8256 1.67327,2.01508 2.18523,2.64327 0.99528,1.22125 1.11462,1.33705 3.13098,3.03789 2.72861,2.30164 5.79537,4.44585 8.9599,6.26457 0.91988,0.52867 1.80154,1.06289 1.95924,1.18714 l 0.28673,0.22593 -0.53797,1.12686 c -0.8518,1.78424 -2.51179,3.69954 -3.20132,3.69369 -0.0986,-8.4e-4 -0.9605,-0.52496 -1.91543,-1.16471 z"
         style="fill:#008000;stroke:#008000;stroke-width:0.30000001;stroke-miterlimit:4;stroke-dasharray:none;stroke-opacity:1" />
      <path
         inkscape:export-ydpi="169.41119"
         inkscape:export-xdpi="169.41119"
         inkscape:export-filename="/home/p4u/Dropbox/Bagul/libremesh.png"
         sodipodi:nodetypes="csscccsccccccsssssssssccssscccc"
         inkscape:connector-curvature="0"
         id="path2998"
         d="m 202.73749,443.10853 c -2.05953,-1.29302 -3.93935,-2.74155 -6.59092,-5.07879 -1.58325,-1.39556 -8.19169,-7.87915 -8.56593,-8.4041 l -0.23649,-0.33172 -0.1663,-1.63945 c -0.0915,-0.9017 -0.16743,-1.77762 -0.16879,-1.94648 -0.004,-0.46242 0.73421,-1.24196 1.52378,-1.60966 0.37611,-0.17515 0.81015,-0.37854 0.96453,-0.45196 0.37687,-0.17924 1.95515,-0.1701 2.3058,0.0134 0.50926,0.26643 4.92244,1.3444 5.81821,1.42116 l 0.87839,0.0753 1.06319,-0.52114 1.0632,-0.52113 0.56719,0.15003 c 0.65556,0.17341 1.24058,0.60559 1.7918,1.3237 0.5506,0.7173 0.58606,0.9848 0.26918,2.03045 -0.44184,1.45798 -0.46238,1.32677 0.59777,3.82019 0.53768,1.26462 0.95241,2.32449 0.92162,2.35528 -0.0308,0.0308 -1.13715,-0.99317 -2.45858,-2.27545 -2.4717,-2.39847 -3.79126,-3.52893 -4.77142,-4.08763 -0.30898,-0.17612 -0.66931,-0.41169 -0.80072,-0.52347 -0.13141,-0.11178 -0.83113,-0.57773 -1.55492,-1.03544 l -1.31599,-0.8322 -0.92207,-0.0779 c -2.09144,-0.17679 -2.04464,0.0479 0.79183,3.80131 1.37708,1.82225 4.87628,5.2181 8.40804,8.18866 0.3751,0.3155 0.75057,0.62621 1.12391,0.92972 0.83229,0.67662 1.54604,1.31569 1.58612,1.42014 0.18297,0.47679 -0.61531,3.98343 -0.99413,4.36696 -0.0499,0.0505 -0.55759,-0.20137 -1.1283,-0.55967 z"
         style="fill:#008000;stroke:#008000;stroke-width:0.30000001;stroke-miterlimit:4;stroke-dasharray:none;stroke-opacity:1" />
    </g>
  </g>
</svg>
