<?xml version="1.0" encoding="UTF-8" standalone="no"?>
<!-- Created with Inkscape (http://www.inkscape.org/) -->

<svg
   xmlns:dc="http://purl.org/dc/elements/1.1/"
   xmlns:cc="http://creativecommons.org/ns#"
   xmlns:rdf="http://www.w3.org/1999/02/22-rdf-syntax-ns#"
   xmlns:svg="http://www.w3.org/2000/svg"
   xmlns="http://www.w3.org/2000/svg"
   xmlns:sodipodi="http://sodipodi.sourceforge.net/DTD/sodipodi-0.dtd"
   xmlns:inkscape="http://www.inkscape.org/namespaces/inkscape"
   width="210mm"
   height="297mm"
   id="svg2"
   version="1.1"
   inkscape:version="0.48.4 r9939"
   sodipodi:docname="Documento nuevo 1">
  <defs
     id="defs4" />
  <sodipodi:namedview
     id="base"
     pagecolor="#ffffff"
     bordercolor="#666666"
     borderopacity="1.0"
     inkscape:pageopacity="0.0"
     inkscape:pageshadow="2"
     inkscape:zoom="0.3576966"
     inkscape:cx="1521.8683"
     inkscape:cy="462.95751"
     inkscape:document-units="px"
     inkscape:current-layer="layer1"
     showgrid="false"
     inkscape:window-width="1366"
     inkscape:window-height="729"
     inkscape:window-x="0"
     inkscape:window-y="39"
     inkscape:window-maximized="1" />
  <metadata
     id="metadata7">
    <rdf:RDF>
      <cc:Work
         rdf:about="">
        <dc:format>image/svg+xml</dc:format>
        <dc:type
           rdf:resource="http://purl.org/dc/dcmitype/StillImage" />
        <dc:title></dc:title>
      </cc:Work>
    </rdf:RDF>
  </metadata>
  <g
     inkscape:label="Capa 1"
     inkscape:groupmode="layer"
     id="layer1">
    <g
       id="g2996"
       transform="translate(105.53924,45.866421)">
      <path
         style="fill:#ccfea7"
         d="m 266.07143,600.79307 c -3.575,-0.43865 -11.45,-1.31746 -17.5,-1.95292 -24.96825,-2.62251 -66.54517,-10.53137 -69.00907,-13.12706 -1.95265,-2.05709 -16.97893,-37.42826 -20.97831,-49.38195 -5.82929,-17.42311 -7.42354,-31.54619 -5.18911,-45.96896 0.85208,-5.5 2.05351,-19.225 2.66985,-30.5 1.55966,-28.53197 6.97276,-47.50435 17.95356,-62.92545 l 1.89094,-2.65559 11.24225,-1.25008 c 14.13746,-1.57201 12.92079,-0.16095 12.91451,-14.9779 l -0.005,-12.69098 3.01756,-7.5 c 5.18293,-12.88187 14.31263,-22.7011 23.28454,-25.04312 2.31476,-0.60424 12.53365,-3.64865 22.70865,-6.76536 l 18.5,-5.66674 6,-6.13849 c 13.65399,-13.96915 24.36688,-14.77808 64,-4.83264 9.35,2.34627 20.05333,4.48099 23.78518,4.74382 l 6.78518,0.47787 8.03921,-3.88767 c 14.32638,-6.92808 23.08257,-3.89898 33.52913,11.59898 4.07614,6.04715 4.0645,5.43729 0.33296,17.44832 l -3.02834,9.74757 7.61746,17.79591 c 7.50089,17.52359 10.77258,26.52152 9.94447,27.34963 -0.8007,0.80071 -9.15967,-5.26475 -73.8374,-53.57808 l -31.1251,-23.25 -3.71236,0 c -2.04179,0 -3.98145,0.4354 -4.31034,0.96755 -1.42399,2.30407 29.30277,41.64589 36.05172,46.15976 2.16052,1.44501 9.77823,6.42791 16.92823,11.0731 22.66178,14.72282 42.48948,32.94982 53.30803,49.00443 l 5.19197,7.70484 0,8.23127 c 0,11.72865 -5.31867,30.76513 -9.29664,33.27437 -5.98008,3.77214 -54.72322,-34.94833 -100.67259,-79.97208 l -23.53077,-23.05676 -12.12661,-5.11415 c -16.08434,-6.78324 -31.86921,-11.21489 -40.12339,-11.26478 -3.57156,-0.0216 9.77959,22.97948 22.05729,37.99981 l 9.40618,11.50735 17.89327,9.94071 c 56.6133,31.45183 82.15645,50.63579 99.92069,75.04458 3.20224,4.4 7.09357,9.66111 8.64741,11.69136 3.66163,4.78429 3.58405,5.84514 -1.14205,15.61813 -7.11779,14.71867 -17.46059,27.25765 -26.21971,31.78717 l -2.94513,1.52299 -9.18398,-5.7003 c -28.57742,-17.73741 -57.10138,-41.15594 -93.18397,-76.50523 -10.45,-10.23762 -19.9,-19.07737 -21,-19.64389 -3.56931,-1.83824 -49.52074,-14.58283 -50.18485,-13.91872 -0.59306,0.59307 0.3572,4.65112 4.28045,18.27937 l 1.47706,5.13089 14.72085,13.54819 c 15.25785,14.04241 23.7308,20.84654 33.30205,26.7429 3.07756,1.89593 20.17756,12.99213 38,24.65823 l 32.40444,21.21109 10.29987,12.63832 10.29988,12.63832 -1.72999,2.65059 c -3.42661,5.25005 -12.78238,13.2284 -19.24033,16.40763 l -6.58738,3.24296 -7.52102,-0.0252 -7.52103,-0.0252 -5,-2.62515 c -11.72971,-6.15844 -58.06437,-42.91973 -77.35936,-61.37584 -6.40235,-6.12401 -12.76564,-11.73339 -14.14064,-12.46528 -2.89188,-1.53932 -25.36018,-9.86974 -28.85456,-10.69822 l -2.35457,-0.55824 2.80264,4.38656 c 4.40816,6.89944 4.4269,6.91724 33.40649,31.72312 15.125,12.94666 33.21846,28.60839 40.20768,34.80385 6.98923,6.19546 14.18923,12.00531 16.00001,12.91078 7.663,3.83184 20.77088,11.9506 21.23121,13.15018 0.56534,1.47326 -2.82994,1.53125 -13.4389,0.22953 z"
         id="path3002"
         inkscape:connector-curvature="0" />
      <path
         style="fill:#b7fe59"
         d="m 248.57143,597.80841 c -31.06955,-4.28175 -63.88068,-10.35933 -67.07835,-12.42487 -4.85099,-3.13352 -23.60464,-51.59711 -27.54804,-71.19023 l -2.12066,-10.53669 0.87352,-4.98054 0.87353,-4.98054 4.06273,2.95393 c 4.3457,3.15968 10.43727,11.7266 10.43727,14.67853 0,7.89049 22.69424,36.11133 39,48.49746 32.45879,24.65623 50.73702,35.49754 55.1524,32.71239 l 1.59594,-1.0067 8.37166,5.16552 c 4.60442,2.84103 7.47354,5.12162 6.37583,5.06799 -1.09771,-0.0536 -14.59583,-1.83396 -29.99583,-3.95625 z m 44.208,-8.4997 c -5.52839,-1.7669 -36.75578,-24.80279 -59.708,-44.04554 -12.77959,-10.71419 -19.63158,-17.00992 -39.36941,-36.1733 -7.12784,-6.92039 -15.53081,-20.24246 -26.31996,-41.72769 l -9.54116,-19 0.58545,-7.04812 c 0.77641,-9.34714 3.74776,-18.7899 9.73961,-30.95188 8.41879,-17.08807 10.43286,-17.86757 7.09547,-2.74615 l -2.15104,9.74615 3.23052,2.72939 c 1.77679,1.50117 5.25346,4.2225 7.72595,6.0474 2.47249,1.8249 4.62613,4.19667 4.78586,5.2706 0.15974,1.07394 1.73679,7.28056 3.50457,13.79251 l 3.21414,11.83989 8.5,8.27957 c 16.6662,16.23399 32.14386,29.27226 40.25796,33.91302 6.32356,3.61668 74.39949,54.63985 82.98128,62.19477 8.30089,7.30765 8.3167,8.0621 0.33604,16.04275 -10.90656,10.90656 -23.93686,15.33005 -34.86728,11.83663 z m 62.13701,-46.90388 C 320.39605,520.77244 269.28761,476.04898 219.29275,423.72461 l -13.9859,-14.63758 -1.86771,-5.36242 -1.86771,-5.36243 0,-17.5 0,-17.5 4.19058,-8.56819 c 5.93582,-12.13656 15.33813,-20.93181 22.37657,-20.93181 l 2.14683,0 -0.70968,1.75 c -5.3653,13.23029 -5.38324,14.42377 -0.2543,16.91954 l 4.25,2.06806 7.81571,13.8812 c 7.76132,13.78459 9.25949,15.74212 35.28262,46.10055 21.27306,24.81702 57.74426,52.99314 101.90167,78.72495 8.25,4.80751 15.87323,9.58498 16.94051,10.6166 l 1.9405,1.87567 -2.76574,6.78171 c -4.42936,10.86095 -11.03056,20.53811 -19.23924,28.20411 -9.14475,8.54018 -9.44996,8.56427 -20.53102,1.62026 z m 43.02879,-77.46496 C 381.58802,454.02718 367.16096,442.8042 350.34062,427.90769 334.68334,414.04121 274.23678,354.93523 273.593,352.86218 c -0.2562,-0.825 -1.13039,-8.20426 -1.94266,-16.39835 l -1.47684,-14.89835 1.41718,-2.60165 c 9.1507,-16.79875 23.94373,-19.34485 59.20939,-10.19079 12.52425,3.25097 25.92794,6.211 29.78598,6.57785 l 7.01462,0.667 8.43248,-4.07786 c 14.47851,-7.00164 24.32724,-3.38552 33.52497,12.30923 l 2.61758,4.46656 -3.19829,10.49614 -3.19829,10.49615 8.29512,19.32704 c 4.56231,10.62986 8.94559,20.90203 9.74062,22.82703 l 1.4455,3.5 -2.13342,-2.25 c -1.17338,-1.2375 -2.53363,-2.25 -3.02277,-2.25 -0.48915,0 -9.80912,-8.59907 -20.71105,-19.10904 -20.94172,-20.1888 -31.3443,-29.1101 -39.0972,-33.52992 -2.59847,-1.48135 -5.62449,-3.45894 -6.72449,-4.39465 -1.1,-0.9357 -7.1626,-4.96696 -13.47244,-8.95836 l -11.47245,-7.25709 -6.30428,-0.78184 c -14.35264,-1.77997 -14.67391,0.37166 -2.543,17.0309 20.11421,27.62261 47.50471,54.54601 93.28227,91.69149 4.66955,3.78903 8.91116,8.08645 9.4258,9.54981 2.13298,6.0651 -6.18812,38.7587 -9.86478,38.7587 -0.71693,0 -7.32172,-4.01504 -14.67732,-8.92231 z"
         id="path3000"
         inkscape:connector-curvature="0" />
      <path
         style="fill:#abfe03"
         d="m 270.57143,599.86979 c -1.1,-0.47137 -9.65,-1.81868 -19,-2.99403 -33.20585,-4.17416 -69.19141,-10.91617 -70.6532,-13.23711 -5.41761,-8.60171 -21.54727,-50.54945 -24.33093,-63.27647 -0.96237,-4.4 -2.12725,-8.9 -2.58861,-10 -0.87451,-2.08504 -1.32139,-7.00386 -1.07263,-11.80654 l 0.14537,-2.80653 3.11985,1.80653 c 3.79055,2.19491 9.88015,9.88402 9.88015,12.47531 0,2.84202 6.17987,14.51146 11.56133,21.83123 13.29782,18.08748 23.73281,27.0808 61.27638,52.81056 11.00177,7.53986 21.28356,11.81519 26.09856,10.85219 2.48658,-0.49732 6.45127,1.18105 8.06373,3.4136 0.275,0.38076 1.4,0.91714 2.5,1.19197 l 2,0.49968 -2.5,0.0483 c -1.375,0.0266 -3.4,-0.33735 -4.5,-0.80871 z m 25.2175,-11.08832 C 283.54912,585.86416 234.5477,547.4089 202.95694,515.92893 187.13317,500.16064 182.0002,492.79214 168.77791,466.86408 l -8.92334,-17.4981 0.4549,-9.0019 c 0.51062,-10.10434 2.73458,-17.44136 9.09405,-30.0019 4.39079,-8.67223 5.52944,-8.31614 3.35941,1.05057 -1.77353,7.65522 -1.83074,7.54218 6.85532,13.54684 4.06015,2.80678 7.57219,5.84559 7.80454,6.75292 0.23236,0.90732 1.88156,7.04967 3.66491,13.64967 l 3.24245,12 9.12064,8.90812 c 14.29829,13.96513 32.89617,29.92656 39.34758,33.76965 13.83274,8.24012 90.27306,66.89341 90.27306,69.26727 0,2.27614 -13.519,14.17603 -19.12697,16.83622 -6.24382,2.9618 -12.80019,3.91446 -18.15553,2.63803 z m 53.24911,-51.68265 c -18.46984,-12.37386 -31.01276,-22.03168 -50.18558,-38.64199 -29.79127,-25.80955 -89.41185,-85.66644 -92.89069,-93.25886 -2.26704,-4.94774 -4.23372,-22.47787 -3.73615,-33.30245 l 0.34629,-7.53334 4.11133,-8.55754 c 4.75048,-9.8879 8.86326,-14.96448 15.07051,-18.60218 5.75853,-3.37472 6.19524,-2.6386 3.33246,5.61709 l -2.38836,6.88757 1.18104,1.42306 c 0.64957,0.78268 2.98369,2.23595 5.18693,3.22947 l 4.0059,1.80641 7.24986,12.9722 c 5.02883,8.99812 10.46657,16.82158 17.74985,25.53733 5.775,6.91081 14.00627,16.86745 18.2917,22.12585 8.33113,10.22264 9.33014,11.19195 26.2083,25.42904 22.84017,19.26618 48.51087,37.21458 75,52.43837 7.7,4.42534 15.08004,8.89706 16.40008,9.93717 l 2.40008,1.89111 -4.5031,9.43252 c -7.1301,14.93521 -21.02529,30.96753 -26.79706,30.91854 -0.825,-0.007 -8.04003,-4.39422 -16.03339,-9.74937 z m 54.71102,-69.65319 C 386.50948,456.62229 370.77424,444.49714 348.57894,424.933 335.32614,413.25127 280.00936,358.97957 276.87672,354.58542 l -1.97958,-2.77675 -1.39208,-13.72325 c -0.76565,-7.54778 -1.40143,-14.87974 -1.41286,-16.29324 -0.0313,-3.87075 6.14584,-10.39601 12.75498,-13.47385 3.14834,-1.46616 6.78152,-3.16859 8.07373,-3.78317 3.15468,-1.50038 16.36586,-1.42385 19.30104,0.1118 4.26278,2.23023 41.20393,11.25351 48.7021,11.89601 l 7.35262,0.63003 8.89962,-4.36222 8.89961,-4.36221 4.74777,1.25586 c 5.48742,1.45151 10.3844,5.06917 14.99844,11.08016 4.6089,6.00429 4.90575,8.24346 2.25322,16.9962 -3.69849,12.20415 -3.87035,11.10586 5.00371,31.9774 4.50074,10.5856 7.9723,19.45741 7.71459,19.71513 -0.25772,0.25771 -9.51867,-8.31341 -20.5799,-19.04694 -20.68964,-20.0767 -31.73521,-29.53934 -39.93978,-34.21604 -2.58639,-1.47427 -5.60252,-3.44606 -6.70252,-4.38177 -1.1,-0.9357 -6.95706,-4.83598 -13.01568,-8.66729 l -11.01568,-6.96601 -7.71824,-0.65243 c -17.50674,-1.47986 -17.11496,0.40094 6.62807,31.81934 12.75135,16.87345 47.2397,49.86543 79.78841,76.32658 6.96678,5.66379 12.94137,11.01314 13.27688,11.88746 1.53153,3.99109 -5.15056,33.34385 -8.32149,36.55424 -0.41736,0.42256 -4.66745,-1.68561 -9.44464,-4.68483 z"
         id="path2998"
         inkscape:connector-curvature="0" />
    </g>
  </g>
</svg>
